HIERARCHY
ROOT Hips
{
	OFFSET 0.000000 97.167313 0.000000
	CHANNELS 6 Xposition Yposition Zposition Xrotation Yrotation Zrotation
	JOINT Spine
	{
		OFFSET 0.000000 13.784798 0.064400
		CHANNELS 3 Xrotation Yrotation Zrotation
		JOINT Spine1
		{
			OFFSET 0.000000 12.037903 0.404700
			CHANNELS 3 Xrotation Yrotation Zrotation
			JOINT Spine2
			{
				OFFSET 0.000000 17.795601 0.420200
				CHANNELS 3 Xrotation Yrotation Zrotation
				JOINT Neck
				{
					OFFSET 0.000000 39.131302 11.954600
					CHANNELS 3 Xrotation Yrotation Zrotation
					JOINT Head
					{
						OFFSET 0.000000 14.456192 15.627699
						CHANNELS 3 Xrotation Yrotation Zrotation
						JOINT HeadTop_End
						{
							OFFSET 0.000000 15.703506 7.603401
							CHANNELS 3 Xrotation Yrotation Zrotation
							End Site
							{
								OFFSET 0.000000 17.447403 0.000000
							}
						}
					}
				}
				JOINT LeftShoulder
				{
					OFFSET 17.399500 24.608795 1.168800
					CHANNELS 3 Xrotation Yrotation Zrotation
					JOINT LeftArm
					{
						OFFSET 18.980635 5.765305 1.818600
						CHANNELS 3 Xrotation Yrotation Zrotation
						JOINT LeftForeArm
						{
							OFFSET 49.290169 0.000000 0.000000
							CHANNELS 3 Xrotation Yrotation Zrotation
							JOINT LeftHand
							{
								OFFSET 31.562012 0.000000 0.000000
								CHANNELS 3 Xrotation Yrotation Zrotation
								JOINT LeftHandThumb1
								{
									OFFSET 6.133995 -4.388519 7.076070
									CHANNELS 3 Xrotation Yrotation Zrotation
									JOINT LeftHandThumb2
									{
										OFFSET 6.037666 -3.485840 3.485847
										CHANNELS 3 Xrotation Yrotation Zrotation
										JOINT LeftHandThumb3
										{
											OFFSET 6.496506 -3.750763 3.750761
											CHANNELS 3 Xrotation Yrotation Zrotation
											JOINT LeftHandThumb4
											{
												OFFSET 5.616882 -3.242905 3.242910
												CHANNELS 3 Xrotation Yrotation Zrotation
												End Site
												{
													OFFSET -1.254608 7.132141 0.375429
												}
											}
										}
									}
								}
								JOINT LeftHandPinky1
								{
									OFFSET 18.920792 -0.453171 -11.426712
									CHANNELS 3 Xrotation Yrotation Zrotation
									JOINT LeftHandPinky2
									{
										OFFSET 4.919586 0.000000 0.000000
										CHANNELS 3 Xrotation Yrotation Zrotation
										JOINT LeftHandPinky3
										{
											OFFSET 5.233047 0.000000 0.000000
											CHANNELS 3 Xrotation Yrotation Zrotation
											JOINT LeftHandPinky4
											{
												OFFSET 5.571716 0.000000 0.000000
												CHANNELS 3 Xrotation Yrotation Zrotation
												End Site
												{
													OFFSET -3.459808 4.342407 -0.466164
												}
											}
										}
									}
								}
								JOINT LeftHandRing1
								{
									OFFSET 22.726120 -0.094986 -6.500475
									CHANNELS 3 Xrotation Yrotation Zrotation
									JOINT LeftHandRing2
									{
										OFFSET 6.408615 0.000000 0.000000
										CHANNELS 3 Xrotation Yrotation Zrotation
										JOINT LeftHandRing3
										{
											OFFSET 6.150223 0.000000 0.000000
											CHANNELS 3 Xrotation Yrotation Zrotation
											JOINT LeftHandRing4
											{
												OFFSET 6.145386 0.000000 0.000000
												CHANNELS 3 Xrotation Yrotation Zrotation
												End Site
												{
													OFFSET -3.671402 4.923981 -0.202372
												}
											}
										}
									}
								}
								JOINT LeftHandMiddle1
								{
									OFFSET 23.373947 0.000000 0.000001
									CHANNELS 3 Xrotation Yrotation Zrotation
									JOINT LeftHandMiddle2
									{
										OFFSET 6.996567 0.000000 0.000000
										CHANNELS 3 Xrotation Yrotation Zrotation
										JOINT LeftHandMiddle3
										{
											OFFSET 7.015945 0.000000 0.000000
											CHANNELS 3 Xrotation Yrotation Zrotation
											JOINT LeftHandMiddle4
											{
												OFFSET 7.721573 0.000000 0.000000
												CHANNELS 3 Xrotation Yrotation Zrotation
												End Site
												{
													OFFSET -4.651108 6.158463 0.251582
												}
											}
										}
									}
								}
								JOINT LeftHandIndex1
								{
									OFFSET 21.310577 -0.490082 6.209344
									CHANNELS 3 Xrotation Yrotation Zrotation
									JOINT LeftHandIndex2
									{
										OFFSET 7.536453 0.000000 0.000000
										CHANNELS 3 Xrotation Yrotation Zrotation
										JOINT LeftHandIndex3
										{
											OFFSET 7.512344 0.000000 0.000000
											CHANNELS 3 Xrotation Yrotation Zrotation
											JOINT LeftHandIndex4
											{
												OFFSET 10.212402 0.000000 0.000001
												CHANNELS 3 Xrotation Yrotation Zrotation
												End Site
												{
													OFFSET -5.180801 8.690506 1.388433
												}
											}
										}
									}
								}
							}
						}
					}
				}
				JOINT RightShoulder
				{
					OFFSET -17.399500 24.608795 1.168800
					CHANNELS 3 Xrotation Yrotation Zrotation
					JOINT RightArm
					{
						OFFSET -18.980635 5.765305 1.818600
						CHANNELS 3 Xrotation Yrotation Zrotation
						JOINT RightForeArm
						{
							OFFSET -49.290169 0.000000 0.000000
							CHANNELS 3 Xrotation Yrotation Zrotation
							JOINT RightHand
							{
								OFFSET -31.562012 0.000000 0.000000
								CHANNELS 3 Xrotation Yrotation Zrotation
								JOINT RightHandThumb1
								{
									OFFSET -6.133995 -4.388519 7.076070
									CHANNELS 3 Xrotation Yrotation Zrotation
									JOINT RightHandThumb2
									{
										OFFSET -6.037666 -3.485840 3.485847
										CHANNELS 3 Xrotation Yrotation Zrotation
										JOINT RightHandThumb3
										{
											OFFSET -6.496506 -3.750763 3.750761
											CHANNELS 3 Xrotation Yrotation Zrotation
											JOINT RightHandThumb4
											{
												OFFSET -5.616882 -3.242905 3.242910
												CHANNELS 3 Xrotation Yrotation Zrotation
												End Site
												{
													OFFSET 1.254608 7.132141 0.375429
												}
											}
										}
									}
								}
								JOINT RightHandIndex1
								{
									OFFSET -21.310577 -0.490082 6.209344
									CHANNELS 3 Xrotation Yrotation Zrotation
									JOINT RightHandIndex2
									{
										OFFSET -7.536453 0.000000 0.000000
										CHANNELS 3 Xrotation Yrotation Zrotation
										JOINT RightHandIndex3
										{
											OFFSET -7.512344 0.000000 0.000000
											CHANNELS 3 Xrotation Yrotation Zrotation
											JOINT RightHandIndex4
											{
												OFFSET -10.212402 0.000000 0.000001
												CHANNELS 3 Xrotation Yrotation Zrotation
												End Site
												{
													OFFSET 5.180801 8.690506 1.388433
												}
											}
										}
									}
								}
								JOINT RightHandMiddle1
								{
									OFFSET -23.373947 0.000000 0.000001
									CHANNELS 3 Xrotation Yrotation Zrotation
									JOINT RightHandMiddle2
									{
										OFFSET -6.996567 0.000000 0.000000
										CHANNELS 3 Xrotation Yrotation Zrotation
										JOINT RightHandMiddle3
										{
											OFFSET -7.015945 0.000000 0.000000
											CHANNELS 3 Xrotation Yrotation Zrotation
											JOINT RightHandMiddle4
											{
												OFFSET -7.721573 0.000000 0.000000
												CHANNELS 3 Xrotation Yrotation Zrotation
												End Site
												{
													OFFSET 4.651108 6.158463 0.251582
												}
											}
										}
									}
								}
								JOINT RightHandRing1
								{
									OFFSET -22.726120 -0.094986 -6.500475
									CHANNELS 3 Xrotation Yrotation Zrotation
									JOINT RightHandRing2
									{
										OFFSET -6.408615 0.000000 0.000000
										CHANNELS 3 Xrotation Yrotation Zrotation
										JOINT RightHandRing3
										{
											OFFSET -6.150223 0.000000 0.000000
											CHANNELS 3 Xrotation Yrotation Zrotation
											JOINT RightHandRing4
											{
												OFFSET -6.145386 0.000000 0.000000
												CHANNELS 3 Xrotation Yrotation Zrotation
												End Site
												{
													OFFSET 3.671402 4.923981 -0.202372
												}
											}
										}
									}
								}
								JOINT RightHandPinky1
								{
									OFFSET -18.920792 -0.453171 -11.426712
									CHANNELS 3 Xrotation Yrotation Zrotation
									JOINT RightHandPinky2
									{
										OFFSET -4.919586 0.000000 0.000000
										CHANNELS 3 Xrotation Yrotation Zrotation
										JOINT RightHandPinky3
										{
											OFFSET -5.233047 0.000000 0.000000
											CHANNELS 3 Xrotation Yrotation Zrotation
											JOINT RightHandPinky4
											{
												OFFSET -5.571716 0.000000 0.000000
												CHANNELS 3 Xrotation Yrotation Zrotation
												End Site
												{
													OFFSET 3.459808 4.342407 -0.466164
												}
											}
										}
									}
								}
							}
						}
					}
				}
			}
		}
	}
	JOINT LeftUpLeg
	{
		OFFSET 19.899099 -7.885101 -3.429500
		CHANNELS 3 Xrotation Yrotation Zrotation
		JOINT LeftLeg
		{
			OFFSET 1.745560 -36.997807 10.304700
			CHANNELS 3 Xrotation Yrotation Zrotation
			JOINT LeftFoot
			{
				OFFSET -1.745558 -29.803308 -13.615400
				CHANNELS 3 Xrotation Yrotation Zrotation
				JOINT LeftToeBase
				{
					OFFSET 1.181900 -18.539904 15.226099
					CHANNELS 3 Xrotation Yrotation Zrotation
					JOINT LeftToe_End
					{
						OFFSET -0.863701 1.402801 16.534700
						CHANNELS 3 Xrotation Yrotation Zrotation
						End Site
						{
							OFFSET 0.000000 16.616566 0.000000
						}
					}
				}
			}
		}
	}
	JOINT RightUpLeg
	{
		OFFSET -19.899099 -7.885101 -3.429500
		CHANNELS 3 Xrotation Yrotation Zrotation
		JOINT RightLeg
		{
			OFFSET -1.745560 -36.997807 10.304700
			CHANNELS 3 Xrotation Yrotation Zrotation
			JOINT RightFoot
			{
				OFFSET 1.745558 -29.803308 -13.615400
				CHANNELS 3 Xrotation Yrotation Zrotation
				JOINT RightToeBase
				{
					OFFSET -1.181900 -18.539904 15.226099
					CHANNELS 3 Xrotation Yrotation Zrotation
					JOINT RightToe_End
					{
						OFFSET 0.863701 1.402801 16.534700
						CHANNELS 3 Xrotation Yrotation Zrotation
						End Site
						{
							OFFSET 0.000000 16.616566 0.000000
						}
					}
				}
			}
		}
	}
}
MOTION
Frames: 4
Frame Time: 0.033333
-2.051441 59.552910 4.949221 36.210876 -46.521870 27.091783 25.891285 -2.521970 -3.927344 7.610166 -2.700107 0.250577 7.638702 -2.586475 0.354202 -20.994012 26.828744 -13.974713 -30.117678 19.951210 5.295498 -0.000000 0.000000 -0.000001 8.139166 -9.431600 -8.270046 -78.338363 -4.089026 -28.534819 38.288811 -28.914957 29.898347 -4.755003 0.386363 8.708146 40.109958 -15.297061 -0.360017 5.639643 28.097539 11.338840 1.088552 40.898411 22.734397 0.000003 0.000003 -0.000002 -17.947268 14.755063 -51.486103 8.868903 8.666896 -84.812406 4.537769 8.851088 -59.152614 0.000001 0.000001 -0.000004 -9.042929 10.045777 -60.766110 8.524227 9.508778 -66.893807 6.575023 9.896223 -70.384225 -0.000000 -0.000001 0.000003 -2.346194 4.689417 -62.655067 8.754231 9.897020 -87.051348 1.994930 4.928637 -37.483532 0.000001 0.000000 0.000004 6.881591 2.840465 -61.140520 8.247853 7.639977 -89.898294 2.146521 8.173791 -41.827010 -0.000000 0.000004 0.000004 6.851376 17.966410 25.474340 -19.765282 3.440983 18.198406 -32.228555 21.492097 13.184583 -0.649161 -3.173567 -9.617126 -2.345488 -6.101491 10.731457 2.364409 -23.807383 -8.771383 -5.016429 13.991241 5.863682 0.000004 0.000000 0.000003 -0.053157 0.532241 0.731548 0.020085 -0.087211 5.084436 -0.002103 -2.005284 -2.820866 0.000000 0.000000 0.000001 0.348315 -5.918846 2.582957 1.432595 -4.204221 24.051707 0.107516 1.672451 -1.411936 0.000002 0.000000 0.000003 1.205829 -11.756080 4.154251 1.794863 -3.771773 26.866011 1.319932 -3.995803 19.486637 0.000002 -0.000002 -0.000005 2.126228 -19.166745 11.320035 3.354734 -2.122219 18.828070 6.367312 -5.016278 28.949289 0.000001 -0.000001 0.000004 -86.292924 -3.739610 39.959861 87.837653 1.602843 -5.012906 -12.337864 -1.265960 -0.326620 -0.008889 -0.000004 -0.008852 -0.000000 -0.000001 0.000001 -60.202339 12.236254 -7.447769 87.273138 -1.968488 1.800268 -47.688937 -8.238622 13.891755 -0.695563 -1.468724 0.839086 -0.000000 -0.000001 -0.000000 
0.957453 59.039841 5.146177 35.326418 -45.492226 26.477539 25.811432 -2.812390 -3.653181 7.559113 -3.332226 0.386570 7.587299 -2.932033 0.548829 -20.912251 27.018215 -14.373966 -30.426748 19.773136 5.528261 0.000001 -0.000000 -0.000000 8.096300 -9.402405 -8.417417 -78.331881 -4.184412 -28.544477 38.514122 -29.255787 30.515007 -4.437736 0.652734 8.485944 40.109948 -15.297061 -0.360014 5.639653 28.097540 11.338837 1.088552 40.898404 22.734396 -0.000004 0.000003 -0.000002 -17.947273 14.755068 -51.486092 8.868905 8.666900 -84.812406 4.537768 8.851088 -59.152621 0.000002 0.000003 -0.000000 -9.042931 10.045778 -60.766117 8.524229 9.508777 -66.893814 6.575022 9.896220 -70.384225 -0.000000 -0.000001 0.000003 -2.346195 4.689417 -62.655067 8.754232 9.897020 -87.051355 1.994931 4.928639 -37.483532 0.000000 -0.000000 0.000006 6.881589 2.840468 -61.140520 8.247850 7.639976 -89.898287 2.146520 8.173792 -41.827016 -0.000001 0.000005 0.000002 6.709715 17.386942 25.119192 -19.813797 2.464791 20.427503 -31.713972 21.742157 12.968671 -0.448827 -3.442787 -10.478248 -2.899983 -5.454600 8.247519 2.240581 -23.376486 -8.717399 -5.328167 14.527210 6.076118 0.000002 0.000001 0.000002 -0.080712 0.629072 -0.273884 0.024404 -0.087214 4.273017 -0.014833 -2.006213 -3.651941 -0.000002 0.000000 0.000001 0.391054 -6.028520 1.897454 1.418704 -4.199649 22.459194 0.109975 1.671878 -2.072036 0.000002 0.000002 -0.000004 1.488948 -12.149580 3.721308 1.826418 -3.755556 25.341542 1.350879 -3.984623 18.147572 -0.000001 0.000001 -0.000005 2.263554 -19.428104 10.368412 3.365514 -2.088503 17.176406 6.377275 -4.934740 26.606100 -0.000000 0.000003 0.000003 -78.492104 -8.491856 44.402039 91.335270 2.000527 -4.124462 -18.162233 -0.923053 -1.847543 -0.008879 -0.000001 -0.008841 -0.000000 0.000001 0.000000 -62.694259 14.032533 -11.188850 87.489000 0.016357 2.481213 -44.485306 -8.398449 15.603053 -0.645007 -1.465017 0.839133 0.000000 0.000002 0.000000 
3.811340 58.163918 5.502987 34.462956 -44.336455 25.701025 25.822442 -2.933966 -3.111829 7.468407 -3.907721 0.587915 7.487701 -3.488981 0.786152 -20.725816 27.270485 -15.070095 -30.935829 19.502442 5.839012 -0.000000 0.000000 -0.000000 7.987389 -9.339689 -8.785458 -78.297136 -4.488421 -28.596873 38.984094 -29.880186 31.413819 -4.031668 1.019326 8.179425 40.109955 -15.297061 -0.360016 5.639647 28.097535 11.338838 1.088555 40.898404 22.734394 -0.000001 -0.000002 -0.000003 -17.947273 14.755065 -51.486103 8.868901 8.666899 -84.812399 4.537769 8.851091 -59.152621 -0.000001 0.000000 -0.000002 -9.042930 10.045777 -60.766110 8.524227 9.508776 -66.893807 6.575023 9.896221 -70.384225 0.000000 0.000001 0.000002 -2.346194 4.689415 -62.655067 8.754232 9.897021 -87.051355 1.994931 4.928640 -37.483535 -0.000000 0.000001 0.000006 6.881593 2.840470 -61.140527 8.247855 7.639979 -89.898294 2.146523 8.173790 -41.827016 -0.000002 -0.000000 -0.000001 6.612978 16.660310 24.783678 -20.293645 1.601095 22.678257 -31.354622 21.702805 12.519937 -0.258117 -3.376984 -12.044852 -3.456344 -4.770316 5.565089 2.098991 -22.887991 -8.654073 -5.742555 15.231458 6.361415 0.000001 -0.000001 -0.000001 -0.100724 0.710642 -1.354519 0.023095 -0.087602 3.373211 -0.028152 -2.007008 -4.511313 -0.000000 0.000002 0.000001 0.450939 -6.197638 1.166704 1.405825 -4.197144 20.693916 0.113142 1.671533 -2.846400 -0.000001 0.000001 -0.000004 1.826056 -12.618025 3.276454 1.863660 -3.742675 23.666343 1.386626 -3.976759 16.679559 0.000002 -0.000002 -0.000005 2.330555 -19.627817 9.503702 3.377378 -2.054406 15.532475 6.378750 -4.851121 23.499433 0.000001 0.000001 0.000006 -73.042241 -11.465447 45.933265 91.847043 4.201911 -2.354904 -17.075454 -2.569469 2.793422 -0.008874 -0.000003 -0.008879 -0.000001 0.000000 -0.000002 -64.580989 16.042936 -15.106900 87.835775 1.908791 3.198318 -41.785140 -8.600669 17.679694 -0.594413 -1.461225 0.839135 -0.000000 -0.000003 -0.000000 
6.866753 56.902000 6.106596 33.719100 -43.164224 24.713928 25.893800 -2.871880 -2.425269 7.346111 -4.315699 0.823395 7.365229 -3.930335 1.053387 -20.499380 27.401671 -15.608581 -31.389511 19.291185 6.051245 0.000000 -0.000000 -0.000000 7.878541 -9.261143 -9.216373 -78.212059 -4.903122 -28.657783 39.573092 -30.660309 32.237048 -3.678139 1.351595 7.875338 40.109958 -15.297059 -0.360014 5.639647 28.097539 11.338840 1.088556 40.898411 22.734391 -0.000002 0.000001 -0.000001 -17.947271 14.755063 -51.486103 8.868902 8.666903 -84.812399 4.537769 8.851087 -59.152614 0.000000 0.000004 0.000005 -9.042931 10.045776 -60.766117 8.524229 9.508781 -66.893814 6.575023 9.896221 -70.384225 -0.000001 0.000000 -0.000000 -2.346193 4.689416 -62.655060 8.754232 9.897023 -87.051348 1.994929 4.928642 -37.483535 -0.000001 0.000002 0.000006 6.881592 2.840466 -61.140520 8.247850 7.639979 -89.898294 2.146524 8.173788 -41.827013 -0.000001 0.000001 0.000001 6.588950 15.928245 24.494431 -20.767841 0.668909 24.614115 -31.110518 21.728601 12.152733 -0.109160 -3.398026 -13.378514 -3.907665 -4.151277 3.059408 1.973467 -22.455338 -8.598643 -6.072109 15.783915 6.590581 0.000002 -0.000001 -0.000000 -0.121321 0.808798 -2.370452 0.021839 -0.087927 2.544181 -0.040929 -2.007990 -5.290677 -0.000001 -0.000003 -0.000001 0.488822 -6.314801 0.477760 1.394712 -4.197897 19.096041 0.116777 1.671243 -3.515411 -0.000000 0.000000 -0.000004 2.099481 -13.026202 2.851371 1.899326 -3.735845 22.132839 1.420003 -3.973350 15.336565 0.000001 0.000002 -0.000005 2.369029 -19.807572 8.660757 3.392337 -2.019275 13.861903 6.400863 -4.782038 20.038211 0.000001 -0.000001 0.000007 -70.482286 -13.435449 45.736446 90.275819 4.704239 -0.798056 -9.626669 -4.142823 8.729326 -0.008893 0.000000 -0.008880 0.000001 -0.000001 -0.000002 -66.157786 18.330904 -19.472181 87.966198 4.162555 4.036004 -38.927335 -8.844730 20.140397 -0.543870 -1.459258 0.839198 0.000000 0.000001 0.000000 
